<?xml version="1.0" encoding="utf-8"?>
<svg xmlns="http://www.w3.org/2000/svg" viewBox="0 0 252 182.2" width="100%">
      <defs />
      <path
        fill="#585A96"
        d="M179.7 182.2H79.2c-4.8 0-8-3.9-7.1-8.7l10-55.3c.9-4.8 5.4-8.7 10.2-8.7h100.5c4.8 0 8 3.9 7.1 8.7l-10 55.3a11 11 0 01-10.2 8.7z"
      />
      <path fill="#8A8886" d="M148 98l40.2-76.4L252 55l-40.2 76.5z" />
      <path fill="#C8C6C4" d="M159.9 84.8L190 27.5l56.2 29.6-30.1 57.3z" />
      <path
        fill="#EE8F94"
        d="M208.6 47c-4.8-1.5-10.5 1.9-12.7 7.7-1.8 5 2.5 8.7.5 12.8-1.9 4.1-8.1 4.3-8.5 9.6-.4 5.3 2.3 7.3-1.1 13.4l6.4 3.4s0-4.1 2.8-6 9.3-5.3 7.8-10.1c-1.4-4.9 1.5-8.3 3.2-9.4s5-4.7 6.8-8.8c1.9-4.2.1-10.9-5.2-12.6z"
      />
      <path
        fill="#FFF"
        d="M214.8 62.1c4.5 2.6 4.2 8.7 1.2 12.6-2.5 3.3-7.4 1.9-9.2 4.8-1.8 3 1.3 8.4-2.6 10.5-3.9 2.1-6.7 1.2-8.4 5.5l-5.8-3.1s2.6-1.6 2.1-4.3c-.6-2.7-.7-8.8 3.5-9.7 4.2-1 5.1-4.4 5-6s-.4-5 2.4-8.3c2.8-3.3 8.9-3.6 11.8-2z"
      />
      <path
        fill="#EE8F94"
        d="M194.4 93c-.1 0-.3 0-.4-.2a.9.9 0 01-.3-1.1c.4-.8 11.3-20 16.7-25.2a.9.9 0 111.2 1.2c-5.3 5-16.3 24.6-16.5 24.8-.1.3-.4.5-.7.5z"
      />
      <path
        fill="#979593"
        d="M201.9 95.5l-16.6-8.8c-.7-.4-1.7.1-1.8 1l-1.4 8.7 13.7 7.2 6.4-6.1c.6-.5.5-1.6-.3-2z"
      />
      <path fill="#EDEBE9" d="M93.3 0l86.8 4.6-5.9 111.8-86.8-4.6z" />
      <path
        fill="#F7C6C8"
        d="M154 23.6c-.3-.5-.9-.8-1.5-.7l-10.1 1.3c-.5.1-1 .4-1.2.9s-.2 1.1.1 1.6L143 29l-11 7-5.5-6.9-16.3 10.4 2.2 3.4 13.2-8.4 5.5 6.9 14.3-9.1 1.9 2.5c.3.4.7.7 1.2.7h.2c.6-.1 1-.4 1.2-.9L154 25c.3-.5.3-1 0-1.4z"
      />
      <path fill="#C8C6C4" d="M101.5 86.1l.3-4.7 57.7 3 1.8-47.5 4.7.3-2.1 52.2z" />
      <path
        fill="#C8C6C4"
        d="M143.9 45.5l12.2.7-1.8 33-12.2-.6zM125.3 51.7l12.2.7-1.4 25.8-12.2-.7zM106.4 62.9l12.2.6-.8 13.7-12.2-.6z"
      />
      <path fill="#BDBDE6" d="M90.5 42.4l25.8 76.5L34 146.6 0 45.8l57.9-19.5z" />
      <path fill="#BDBDE6" d="M90.5 42.4l-24.3 8.2-8.3-24.3z" />
      <path
        fill="#A6A7DC"
        d="M50.5 74.3l31.4-10.6 1.6 4.7L52.1 79zM32 93.8l54-18.2 1.5 4.7-54 18.2zM35.8 105.6l54-18.2 1.6 4.7-54 18.2zM46.5 62.5L77.9 52l1.6 4.7-31.4 10.6z"
      />
      <path fill="#EE8F94" d="M40.4 64.6l5.5 16.5-16.4 5.4L24 70.2l16.4-5.6" opacity=".8" />
      <path
        fill="#8B8CC7"
        d="M179.7 182.2H79.2c-4.8 0-9.3-3.9-10.1-8.6l-9.2-55.2c-.8-4.8 2.4-8.6 7.2-8.6h100.5c4.8 0 9.3 3.9 10.1 8.6l9.2 55.2a7.1 7.1 0 01-7.2 8.6z"
      />
      <path
        fill="#8B8CC7"
        d="M89.2 114.4l-29.1 5.5-2.3-13.8c-.8-4.6 2.3-8.3 6.9-8.3h13.4c4.6 0 8.9 3.7 9.7 8.3l1.4 8.3z"
      />
    </svg>