<?xml version="1.0" encoding="utf-8"?>
<svg xmlns="http://www.w3.org/2000/svg" viewBox="0 0 254 184.2" width="100%">
      <defs />
      <path
        fill="#FFF"
        d="M180.7 183.2H80.2c-4.8 0-8-3.9-7.1-8.7l10-55.3c.9-4.8 5.4-8.7 10.2-8.7h100.5c4.8 0 8 3.9 7.1 8.7l-10 55.3a11 11 0 01-10.2 8.7z"
      />
      <path d="M180.7 184.2H80.2c-2.6 0-4.9-1-6.4-2.9a8.4 8.4 0 01-1.7-7l10-55.3c1-5.3 6-9.5 11.2-9.5h100.5c2.6 0 4.9 1 6.4 2.9a8.4 8.4 0 011.7 7l-10 55.3a12 12 0 01-11.2 9.5zm-87.4-72.7a9.9 9.9 0 00-9.2 7.9l-10 55.3c-.4 2 0 4 1.2 5.3a6.2 6.2 0 004.9 2.2h100.5c4.3 0 8.4-3.5 9.2-7.9l10-55.3c.4-2 0-4-1.2-5.3a6.2 6.2 0 00-4.9-2.2H93.3z" />
      <path fill="#FFF" d="M149 99l40.2-76.5L253 56.1l-40.2 76.5z" />
      <path d="M212.8 133.6a1 1 0 01-.5-.1l-63.8-33.6a1 1 0 01-.4-1.4l40.2-76.4a1 1 0 011.4-.4l63.8 33.6a1 1 0 01.4 1.3l-40.2 76.5a1 1 0 01-1 .5zm-62.5-35l62 32.7 39.4-74.7-62-32.7-39.4 74.7z" />
      <path d="M160.9 85.8L191 28.5l56.2 29.6-30.1 57.2z" />
      <path d="M217 115.9h-.2l-56.2-29.7a.5.5 0 01-.2-.6l30.2-57.3c0-.2.4-.3.6-.2l56.2 29.6c.3.1.4.4.2.7l-30.1 57.2a.5.5 0 01-.4.3zm-55.5-30.3l55.3 29.1 29.7-56.4-55.3-29-29.7 56.3z" />
      <path
        fill="#FFF"
        d="M210 47.7c-4.9-1.5-10.6 1.9-12.8 7.7-1.8 5 2.5 8.7.5 12.8-1.9 4-8 4.3-8.5 9.6-.4 5.3 2.3 7.3-1 13.4l6.3 3.4s0-4.1 2.8-6 9.3-5.3 7.8-10.1c-1.4-5 1.5-8.3 3.2-9.4s5-4.7 6.8-8.8c2-4.2.1-11-5.2-12.6z"
      />
      <path
        fill="#FFF"
        d="M216.1 62.8c4.5 2.6 4.2 8.7 1.2 12.6-2.5 3.3-7.4 1.9-9.2 4.8-1.8 3 1.3 8.4-2.6 10.5-3.9 2-6.7 1.2-8.4 5.5l-5.8-3.1s2.6-1.6 2.1-4.3c-.6-2.7-.7-8.8 3.5-9.7 4.2-1 5.1-4.4 5-6s-.4-5 2.4-8.3c2.8-3.3 9-3.6 11.8-2z"
      />
      <path d="M197.1 97.2a1 1 0 01-.5-.1l-5.8-3.1a1 1 0 010-1.8s2-1.2 1.6-3.2c-.4-2-.7-6 1-8.6a5 5 0 013.3-2.3c3.5-.8 4.3-3.6 4.2-5-.1-1.8-.3-5.4 2.6-9 3-3.5 9.6-4 13-2.2h.1c2 1.2 3.3 3 3.8 5.3.5 2.9-.3 6.3-2.3 8.8-1.5 2-3.6 2.5-5.5 3-1.6.3-3 .7-3.6 1.7-.6 1-.5 2.4-.5 4 .2 2.4.3 5.3-2.5 6.9-1.4.7-2.6 1-3.6 1.4-2.1.7-3.4 1-4.4 3.6a1 1 0 01-.9.6zm-4-4.3l3.5 2c1.4-2.6 3.2-3.2 5.2-3.8 1-.3 2-.7 3.2-1.3 1.7-.9 1.7-2.5 1.5-5 0-1.8-.1-3.6.7-5.1 1.2-1.8 3-2.3 4.9-2.7 1.7-.4 3.3-.8 4.4-2.2a9.3 9.3 0 001.9-7.2c-.3-1.7-1.3-3-2.8-4-2.4-1.3-8-1.1-10.5 1.8-2.5 3-2.3 6-2.2 7.5v.1a7 7 0 01-5.8 7 3 3 0 00-2 1.5c-1.2 2-1.1 5.3-.7 7A5 5 0 01193 93z" />
      <path fill="#FFF" d="M195.7 92.8s11.2-20 16.6-25" />
      <path d="M195.7 93.8a1 1 0 01-.9-1.5c.5-.8 11.4-20 16.8-25.2a1 1 0 111.4 1.4c-5.2 5-16.3 24.6-16.4 24.8a1 1 0 01-.9.5z" />
      <path
        fill="#FFF"
        d="M203.2 96.2l-16.6-8.8c-.7-.4-1.7 0-1.8 1l-1.4 8.7 13.7 7.2 6.4-6.1c.6-.5.5-1.6-.3-2z"
      />
      <path d="M197.1 105.3a1 1 0 01-.5-.1L183 98a1 1 0 01-.5-1l1.4-8.8c.1-.7.6-1.3 1.3-1.7.6-.3 1.4-.3 2 0l16.6 8.8a2.2 2.2 0 01.4 3.7l-6.3 6a1 1 0 01-.7.3zm-12.6-8.8l12.4 6.6 6-5.6v-.2l-.1-.2-16.7-8.8h-.1s-.2 0-.2.2l-1.3 8z" />
      <path fill="#FFF" d="M94.3 1l86.8 4.6-5.9 111.8-86.8-4.6z" />
      <path d="M175.2 118.4l-86.9-4.6a1 1 0 01-.9-1L93.3.8a1 1 0 011-.9l86.9 4.6c.5 0 1 .5.9 1l-5.9 111.9a1 1 0 01-1 .9zm-85.7-6.5l84.8 4.4L180 6.5 95.2 2.1l-5.7 109.8z" />
      <path d="M155 24.6c-.3-.5-.9-.8-1.5-.7l-10.1 1.3c-.5.1-1 .4-1.2.9s-.2 1.1.1 1.6L144 30l-11 7-5.5-6.9-16.3 10.4 2.2 3.4 13.2-8.4 5.5 6.9 14.3-9.1 1.9 2.5c.3.4.7.7 1.2.7h.2c.6-.1 1-.4 1.2-.9L155 26c.3-.5.3-1 0-1.4zM102.5 87.1l.3-4.7 57.7 3 1.8-47.5 4.7.3-2.1 52.2z" />
      <path d="M144.9 46.5l12.2.7-1.8 33-12.2-.6zM126.3 52.7l12.2.7-1.4 25.8-12.2-.7zM107.4 63.9l12.2.6-.8 13.7-12.2-.6z" />
      <path fill="#FFF" d="M91.5 43.4l25.8 76.5L35 147.6 1 46.8l57.9-19.5z" />
      <path d="M35 148.6a1 1 0 01-1-.7L0 47.1A1 1 0 01.8 46l57.9-19.5h.7L92 42.5c.3.1.5.3.5.6l25.8 76.5a1 1 0 01-.6 1.2l-82.3 27.7a1 1 0 01-.3.1zM2.3 47.4l33.3 99 80.4-27.1L90.7 44 58.8 28.4l-56.5 19z" />
      <g>
        <path fill="#FFF" d="M91.5 43.4l-24.3 8.2-8.3-24.3z" />
        <path d="M67.2 52.6a1 1 0 01-1-.7L58 27.6a1 1 0 011.3-1.2L92 42.5a1 1 0 010 1.8l-24.4 8.2a1 1 0 01-.3.1zm-6.6-23.3l7.2 21 21-7-28.2-14z" />
      </g>
      <g>
        <path d="M51.5 75.3l31.4-10.6 1.6 4.7L53.1 80z" />
      </g>
      <g>
        <path d="M33 94.8l54-18.2 1.5 4.7-54 18.2z" />
      </g>
      <g>
        <path d="M36.8 106.6l54-18.2 1.6 4.7-54 18.2z" />
      </g>
      <g>
        <path d="M47.5 63.5L78.9 53l1.6 4.7-31.4 10.6z" />
      </g>
      <g>
        <path d="M41.4 65.6l5.5 16.5-16.4 5.4L25 71.2l16.4-5.6" />
      </g>
      <g>
        <path
          fill="#FFF"
          d="M187.9 174.6l-9.2-55.2c-.8-4.7-5.3-8.6-10.1-8.6H89.4l-.6-3.7c-.8-4.6-5.1-8.3-9.7-8.3H65.7c-4.6 0-7.7 3.7-6.9 8.3l2.3 13.8 9 53.7c.8 4.7 5.3 8.6 10.1 8.6h100.5c4.7 0 8-3.8 7.2-8.6z"
        />
        <path d="M180.7 184.2H80.2c-5.2 0-10.2-4.2-11-9.4l-9-53.5v-.2l-2.4-13.8a8 8 0 011.7-6.7 8 8 0 016.2-2.8h13.4c5.1 0 9.8 4 10.7 9.1l.5 2.9h78.3c5.2 0 10.2 4.2 11 9.4l9.3 55.2c.4 2.6-.2 5-1.8 7a8.2 8.2 0 01-6.4 2.8zM62 120.5l.1.2 9 53.7a9.6 9.6 0 009.1 7.8h100.5c2 0 3.7-.8 4.9-2.1a6.4 6.4 0 001.3-5.3l-9.2-55.2a9.6 9.6 0 00-9.1-7.8H89.4a1 1 0 01-1-.8l-.6-3.7a9.2 9.2 0 00-8.7-7.5H65.7a6 6 0 00-4.7 2 6.1 6.1 0 00-1.2 5.1l2.2 13.6z" />
      </g>
    </svg>