<svg width="23" height="20" viewBox="0 0 23 20" fill="none" xmlns="http://www.w3.org/2000/svg">
<path d="M22.707 4.32812C22.9023 4.53906 23 4.77344 23 5.03125C23 5.30469 22.9023 5.53906 22.707 5.73438L9.21875 19.2227C9.125 19.3242 9.01953 19.3984 8.90234 19.4453C8.78516 19.4922 8.65625 19.5156 8.51562 19.5156C8.24219 19.5156 8.00781 19.418 7.8125 19.2227L0.359375 11.7695C0.257812 11.6758 0.183594 11.5703 0.136719 11.4531C0.0898438 11.3359 0.0664062 11.207 0.0664062 11.0664C0.0664062 10.793 0.164063 10.5586 0.359375 10.3633L3.91016 6.80078C4.12109 6.60547 4.35547 6.50781 4.61328 6.50781C4.88672 6.50781 5.12109 6.60547 5.31641 6.80078L8.51562 10L17.7383 0.777344C17.8398 0.675781 17.9492 0.601562 18.0664 0.554688C18.1836 0.507812 18.3086 0.484375 18.4414 0.484375C18.5742 0.484375 18.6992 0.507812 18.8164 0.554688C18.9336 0.601562 19.0469 0.675781 19.1562 0.777344L22.707 4.32812ZM1.77734 11.0664L4.61328 13.9023L7.46094 11.0664L4.61328 8.21875L1.77734 11.0664ZM8.51562 17.8047L21.2891 5.03125L18.4414 2.19531L5.67969 14.9688L5.76172 15.0508L8.51562 17.8047Z" fill="black"/>
</svg>
