<svg width="155" height="155" viewBox="0 0 155 155" fill="none" xmlns="http://www.w3.org/2000/svg">
<path d="M61.1698 131.529C85.5058 131.529 105.234 111.8 105.234 87.4643C105.234 63.1283 85.5058 43.4 61.1698 43.4C36.8337 43.4 17.1055 63.1283 17.1055 87.4643C17.1055 111.8 36.8337 131.529 61.1698 131.529Z" fill="#F3F2F1"/>
<path d="M56.9082 71.0233H45.726C42.3492 71.0233 39.6367 68.3108 39.6367 64.934C39.6367 61.5572 42.3492 58.8447 45.726 58.8447H56.9082C61.7796 58.8447 65.7099 54.9143 65.7099 50.0429V40.4108C65.7099 37.034 68.4224 34.3215 71.7992 34.3215C75.176 34.3215 77.8885 37.034 77.8885 40.4108V50.0429C77.8885 61.6125 68.4778 71.0233 56.9082 71.0233Z" fill="#E1DFDD"/>
<path d="M42.4027 87.0768H32.9366C22.6402 87.0768 14.2812 78.7179 14.2812 68.4215V60.284C14.2812 56.9072 16.9937 54.1947 20.3705 54.1947C23.7473 54.1947 26.4598 56.9072 26.4598 60.284V68.4215C26.4598 72.0197 29.3937 74.8983 32.9366 74.8983H42.4027C45.7795 74.8983 48.492 77.6108 48.492 80.9876C48.492 84.3643 45.7241 87.0768 42.4027 87.0768Z" fill="#E1DFDD"/>
<path d="M45.7252 128.041C41.5734 128.041 38.252 124.72 38.252 120.568V27.4017C38.252 23.25 41.5734 19.9285 45.7252 19.9285C49.877 19.9285 53.1984 23.25 53.1984 27.4017V120.568C53.1984 124.72 49.8216 128.041 45.7252 128.041Z" fill="#E1DFDD"/>
<g opacity="0.5">
<path opacity="0.5" d="M53.1984 27.4017V44.1196C47.8287 45.116 42.7359 47.0535 38.252 49.8214V27.4017C38.252 23.25 41.5734 19.9285 45.7252 19.9285C49.8216 19.9285 53.1984 23.3053 53.1984 27.4017Z" fill="#F3F2F1"/>
</g>
<path d="M123.779 126.713H92.225C93.2214 125.882 93.8303 124.664 93.8303 123.28C93.8303 120.845 91.8374 118.852 89.4017 118.852H14.2821C11.8464 118.852 9.85352 120.845 9.85352 123.28C9.85352 125.716 11.8464 127.709 14.2821 127.709H35.3178C34.3214 128.484 33.6571 129.591 33.6571 130.864C33.6571 133.189 35.7607 135.016 38.4178 135.016H123.779C126.38 135.016 128.539 133.134 128.539 130.864C128.539 128.595 126.436 126.713 123.779 126.713Z" fill="#FFE5B9"/>
<path d="M91.782 128.595C103.767 128.595 113.482 118.879 113.482 106.895C113.482 94.9101 103.767 85.1946 91.782 85.1946C79.7975 85.1946 70.082 94.9101 70.082 106.895C70.082 118.879 79.7975 128.595 91.782 128.595Z" fill="#F7B548"/>
<path d="M93.1118 132.525C92.835 132.525 92.5029 132.359 92.3921 132.082C92.1707 131.695 92.3368 131.196 92.7243 130.975C92.7796 130.975 97.4296 128.429 97.7064 123.557C97.7618 123.114 98.0939 122.727 98.5922 122.782C99.035 122.838 99.4225 123.225 99.3671 123.668C98.9797 129.536 93.7207 132.359 93.4993 132.47C93.3886 132.47 93.2779 132.525 93.1118 132.525Z" fill="#FFD590"/>
<path d="M86.2479 131.584C86.0818 131.584 85.8604 131.529 85.6943 131.362C85.3622 131.086 85.3068 130.532 85.5836 130.2C85.7497 129.979 89.7907 125.052 84.6979 117.966C84.4211 117.579 84.5318 117.08 84.864 116.804C85.2515 116.527 85.7497 116.637 86.0265 116.97C89.0711 121.232 89.1265 124.83 88.6836 127.155C88.1854 129.702 86.9122 131.196 86.8568 131.252C86.6907 131.473 86.4693 131.584 86.2479 131.584Z" fill="#FFD590"/>
<path d="M92.1684 127.211C91.0059 127.211 89.4559 126.768 87.5184 125.218C87.1863 124.941 87.1309 124.388 87.4077 124.055C87.6845 123.723 88.238 123.668 88.5702 123.945C91.6702 126.491 93.2755 125.329 93.2755 125.329C93.6077 125.052 94.1613 125.107 94.438 125.439C94.7148 125.771 94.6595 126.325 94.3273 126.602C94.272 126.602 93.5523 127.211 92.1684 127.211Z" fill="#FFD590"/>
<path d="M82.7585 123.834C82.371 123.834 82.0389 123.557 81.9282 123.17C81.9282 123.17 81.596 121.62 80.3228 120.789C79.4371 120.18 78.2746 120.07 76.8353 120.402C76.3924 120.513 75.9496 120.236 75.8389 119.793C75.7282 119.35 76.0049 118.907 76.4478 118.796C78.3299 118.354 79.9353 118.575 81.2639 119.461C83.146 120.679 83.5335 122.838 83.5889 122.948C83.6442 123.391 83.3674 123.834 82.9246 123.889C82.8692 123.834 82.8139 123.834 82.7585 123.834Z" fill="#FFD590"/>
<path d="M76.4494 127.377C76.1727 127.377 75.8959 127.266 75.7851 126.989C75.6744 126.879 73.5709 123.668 74.4012 120.402C75.2869 116.859 74.9548 114.479 73.4601 113.095C73.128 112.763 73.0727 112.264 73.4048 111.932C73.7369 111.6 74.2351 111.545 74.5673 111.877C76.6155 113.704 77.0584 116.582 76.0619 120.789C75.453 123.336 77.2244 126.048 77.2244 126.048C77.5012 126.436 77.3905 126.934 77.003 127.211C76.7262 127.321 76.6155 127.377 76.4494 127.377Z" fill="#FFD590"/>
<path d="M92.668 122.671C92.4466 122.671 92.2252 122.561 92.0591 122.395C91.7269 122.062 91.7823 121.509 92.1144 121.232C92.1144 121.232 93.8859 119.571 94.8823 116.804C95.8787 114.091 98.2591 112.541 99.3662 112.098C99.9198 111.877 100.307 111.877 100.639 112.043C101.027 112.264 101.193 112.762 101.027 113.15C100.861 113.482 100.529 113.648 100.141 113.593C99.5323 113.759 97.318 115.087 96.4323 117.412C95.2698 120.512 93.3323 122.395 93.2216 122.45C93.0555 122.616 92.8341 122.671 92.668 122.671Z" fill="#FFD590"/>
<path d="M103.406 121.896C103.129 121.896 102.908 121.786 102.741 121.564C102.631 121.398 99.8075 117.855 95.3236 119.073C94.8807 119.184 94.4379 118.907 94.3271 118.464C94.2164 118.021 94.4932 117.579 94.9361 117.468C100.527 115.973 103.959 120.346 104.07 120.568C104.347 120.955 104.291 121.454 103.904 121.73C103.738 121.841 103.572 121.896 103.406 121.896Z" fill="#FFD590"/>
<path d="M109.274 125.55C109.053 125.55 108.887 125.495 108.721 125.329C108.555 125.163 104.624 121.564 105.731 117.8C105.842 117.357 106.34 117.08 106.783 117.246C107.226 117.357 107.503 117.855 107.337 118.298C106.506 121.066 109.828 124.111 109.883 124.111C110.215 124.443 110.271 124.941 109.939 125.273C109.717 125.439 109.496 125.55 109.274 125.55Z" fill="#FFD590"/>
<path d="M109.11 118.686C106.674 118.686 104.238 117.855 102.744 115.198C102.522 114.811 102.688 114.312 103.076 114.091C103.463 113.87 103.962 114.036 104.183 114.423C106.785 119.129 113.483 116.084 113.594 116.084C113.981 115.918 114.479 116.084 114.701 116.471C114.867 116.914 114.701 117.357 114.313 117.579C113.04 118.132 111.103 118.686 109.11 118.686Z" fill="#FFD590"/>
<path d="M106.784 113.095C106.729 113.095 106.729 113.095 106.673 113.095C106.507 113.095 102.189 112.541 99.2002 108.445C98.3145 107.227 97.7056 106.009 97.152 104.957C95.9341 102.577 94.9931 100.805 92.0591 100.086C91.6163 99.975 91.3395 99.5321 91.4502 99.0893C91.5609 98.6464 92.0038 98.3696 92.4466 98.4803C96.1002 99.3661 97.3181 101.691 98.5913 104.182C99.1448 105.234 99.6984 106.341 100.529 107.448C103.075 110.936 106.839 111.434 106.839 111.434C107.282 111.489 107.614 111.877 107.559 112.375C107.559 112.818 107.227 113.095 106.784 113.095Z" fill="#FFD590"/>
<path d="M101.691 106.95C100.473 106.95 99.1447 106.673 97.7607 105.843C97.3732 105.621 97.2625 105.068 97.4839 104.68C97.7054 104.293 98.2589 104.182 98.6464 104.404C102.079 106.507 105.732 104.016 105.788 104.016C106.175 103.739 106.673 103.85 106.95 104.237C107.227 104.625 107.116 105.123 106.729 105.4C106.563 105.511 104.404 106.95 101.691 106.95Z" fill="#FFD590"/>
<path d="M114.755 113.261C114.589 113.261 114.368 113.205 114.202 113.039C114.202 113.039 111.766 111.046 110.437 112.154C110.105 112.43 109.552 112.375 109.275 112.043C108.998 111.711 109.053 111.157 109.386 110.88C111.766 108.888 115.143 111.655 115.253 111.766C115.586 112.043 115.641 112.596 115.364 112.929C115.253 113.15 115.032 113.261 114.755 113.261Z" fill="#FFD590"/>
<path d="M108.666 108.777C108.278 108.777 107.891 108.5 107.835 108.057C107.78 107.614 108.057 107.171 108.499 107.116C113.924 106.23 115.696 101.691 115.696 101.691C115.862 101.248 116.36 101.027 116.748 101.193C117.19 101.359 117.412 101.857 117.246 102.245C117.135 102.466 115.142 107.725 108.721 108.777C108.776 108.777 108.721 108.777 108.666 108.777Z" fill="#FFD590"/>
<path d="M107.391 101.802C107.17 101.802 106.949 101.691 106.783 101.525C106.45 101.193 106.506 100.695 106.838 100.362C106.893 100.307 109.495 97.7607 109.495 94.4946C109.495 92.5571 108.554 90.7303 106.727 89.0143C106.395 88.6821 106.395 88.1839 106.672 87.8518C107.004 87.5196 107.502 87.5196 107.834 87.7964C109.993 89.8446 111.1 92.0589 111.1 94.4946C111.1 98.4803 108.056 101.414 107.945 101.58C107.779 101.746 107.558 101.802 107.391 101.802Z" fill="#FFD590"/>
<path d="M107.394 95.491C105.567 95.491 103.187 95.2142 101.692 93.8303C101.36 93.4982 101.36 93 101.637 92.6678C101.969 92.3357 102.467 92.3357 102.799 92.6125C104.349 94.0517 108.113 93.8857 109.387 93.6642C109.83 93.6089 110.272 93.8857 110.328 94.3839C110.383 94.8267 110.106 95.2696 109.608 95.325C109.608 95.3803 108.667 95.491 107.394 95.491Z" fill="#FFD590"/>
<path d="M100.751 102.577C100.529 102.577 100.308 102.466 100.142 102.3C99.8095 101.968 99.8095 101.47 100.142 101.137C101.636 99.6982 100.972 97.2625 100.972 97.2071C100.861 96.7643 101.083 96.3214 101.526 96.2107C101.968 96.1 102.411 96.3214 102.522 96.7643C102.577 96.9304 103.463 100.196 101.249 102.3C101.193 102.521 100.972 102.577 100.751 102.577Z" fill="#FFD590"/>
<path d="M90.2871 118.354C90.2318 118.354 90.1764 118.354 90.121 118.354C89.6782 118.243 89.4014 117.8 89.4568 117.357C89.4568 117.357 89.7336 115.807 88.9032 114.866C88.3496 114.257 87.2978 113.98 85.8586 114.146C85.4157 114.202 84.9728 113.87 84.9728 113.427C84.9175 112.984 85.2496 112.541 85.6925 112.541C87.6853 112.32 89.2353 112.762 90.1764 113.814C91.5603 115.364 91.1175 117.634 91.1175 117.745C91.0621 118.077 90.6746 118.354 90.2871 118.354Z" fill="#FFD590"/>
<path d="M92.6113 107.78C91.7256 107.78 90.7845 107.504 89.8988 106.729L89.7327 106.562C87.2416 104.348 85.9684 103.296 84.197 104.127C83.8095 104.348 83.3113 104.182 83.0898 103.739C82.8684 103.352 83.0345 102.854 83.4773 102.632C86.3006 101.248 88.4041 103.13 90.8398 105.289L91.0059 105.455C92.6113 106.839 94.3827 105.511 94.4934 105.455C94.8809 105.179 95.3791 105.234 95.6559 105.621C95.9327 106.009 95.8773 106.507 95.4898 106.784C94.8809 107.282 93.8291 107.78 92.6113 107.78Z" fill="#FFD590"/>
<path d="M84.7505 109.386C84.5844 109.386 84.4737 109.33 84.3076 109.275C83.9201 109.054 83.8094 108.555 84.0308 108.112C84.7505 106.95 87.1862 103.186 89.2898 104.459C89.6773 104.68 89.8433 105.179 89.5665 105.621C89.3451 106.009 88.8469 106.175 88.404 105.898C88.0165 105.677 86.5219 107.061 85.3594 108.998C85.304 109.22 85.0273 109.386 84.7505 109.386Z" fill="#FFD590"/>
<path d="M82.1493 114.811C82.0386 114.811 81.8726 114.755 81.7618 114.7C81.4851 114.589 75.6726 111.489 77.2779 107.393C77.5547 106.673 77.8315 106.064 78.1083 105.566C78.9386 103.739 79.2154 103.186 78.219 101.359C77.9976 100.971 78.1636 100.473 78.5511 100.252C78.9386 100.03 79.4368 100.196 79.6583 100.584C81.0422 103.186 80.4886 104.348 79.6029 106.286C79.3815 106.784 79.1047 107.337 78.8279 108.057C77.7761 110.714 82.4815 113.205 82.4815 113.261C82.869 113.482 83.0351 113.98 82.869 114.368C82.7029 114.645 82.4261 114.811 82.1493 114.811Z" fill="#FFD590"/>
<path d="M67.978 113.371C67.9226 113.371 67.8673 113.371 67.8119 113.371C67.3691 113.261 67.0923 112.818 67.1476 112.375C67.203 112.209 68.0334 108.279 71.2441 106.673C73.2369 105.677 75.6173 105.787 78.3298 107.005C78.7726 107.171 78.9387 107.67 78.7726 108.112C78.6066 108.555 78.1084 108.721 77.6655 108.555C75.3959 107.559 73.5137 107.448 72.0191 108.223C69.528 109.496 68.753 112.762 68.753 112.818C68.6976 113.095 68.3655 113.371 67.978 113.371Z" fill="#FFD590"/>
<path d="M72.9594 103.462C72.5166 103.462 72.1844 103.13 72.1291 102.687C72.0184 100.529 74.1773 99.0893 76.1148 97.7607C76.8898 97.2625 77.6094 96.7643 78.163 96.266C78.7166 95.7678 78.938 95.2143 78.938 94.55C78.8827 93.8303 78.4952 93.2214 78.3291 93.1107C77.8862 92.9446 77.7202 92.5018 77.8862 92.0589C78.0523 91.616 78.5505 91.45 78.9934 91.5607C79.713 91.8375 80.3773 92.8893 80.5987 93.941C80.8202 95.2696 80.3773 96.5428 79.3255 97.4285C78.7166 97.9821 77.8862 98.5357 77.1112 99.0339C75.5059 100.141 73.7898 101.248 73.8452 102.466C73.7898 103.02 73.4577 103.407 72.9594 103.462Z" fill="#FFD590"/>
<path d="M76.1697 99.5322C75.7822 99.5322 75.4501 99.2554 75.3394 98.8679C75.3394 98.8125 74.6197 95.7125 72.5715 95.4911C70.0804 95.2143 69.6376 96.875 69.6376 96.875C69.5269 97.3179 69.084 97.5947 68.6412 97.484C68.1983 97.3732 67.9215 96.9304 68.0322 96.4875C68.309 95.4357 69.6376 93.5536 72.7376 93.8857C76.059 94.2179 76.9447 98.425 77.0001 98.5911C77.1108 99.034 76.7787 99.4768 76.3358 99.5875C76.2804 99.5322 76.2251 99.5322 76.1697 99.5322Z" fill="#FFD590"/>
<path d="M96.0448 91.5607C95.8787 91.5607 95.6573 91.5054 95.5466 91.3947C90.6751 87.409 84.9733 90.7857 84.7519 90.8965C84.3644 91.1179 83.8662 91.0072 83.5894 90.6197C83.368 90.2322 83.4787 89.734 83.8662 89.4572C83.9216 89.4018 90.7858 85.3607 96.543 90.0661C96.8751 90.3429 96.9305 90.8965 96.6537 91.2286C96.4876 91.45 96.2662 91.5607 96.0448 91.5607Z" fill="#FFD590"/>
<path d="M90.7307 89.2357C90.454 89.2357 90.1772 89.0696 90.0111 88.8482C88.0736 85.6375 89.4022 83.0357 90.3986 82.0946C90.7308 81.7625 91.2843 81.8178 91.5611 82.15C91.8932 82.4821 91.8379 82.9803 91.5058 83.3125C91.395 83.3678 89.679 85.1393 91.395 87.9625C91.6165 88.35 91.5058 88.8482 91.1183 89.125C91.0075 89.2357 90.8415 89.2357 90.7307 89.2357Z" fill="#FFD590"/>
<path d="M84.5841 99.5875C84.0858 99.5875 83.7537 99.5321 83.6983 99.5321C83.2555 99.4768 82.9233 99.0893 82.9787 98.591C83.034 98.0928 83.4216 97.816 83.9198 97.8714C83.9198 97.8714 86.6876 98.1482 88.293 96.875C88.9573 96.3214 89.3448 95.6017 89.4001 94.6053C89.4555 94.1625 89.843 93.8303 90.2858 93.8303C90.7287 93.8857 91.0608 94.2732 91.0608 94.716C90.9501 96.1553 90.3412 97.3178 89.3448 98.1482C87.8501 99.366 85.7466 99.5875 84.5841 99.5875Z" fill="#FFD590"/>
<path d="M94.5496 96.2107C93.6639 96.2107 92.8889 95.9339 92.28 95.5464C89.7889 93.9964 85.8032 95.8232 85.7478 95.8232C85.305 96.0447 84.8621 95.8232 84.6407 95.4357C84.4193 94.9929 84.6407 94.55 85.0282 94.3286C85.2496 94.2179 89.8443 92.1143 93.1103 94.1072C94.4389 94.9375 95.8228 94.55 97.3728 92.9447C97.5389 92.7786 97.5943 92.6679 97.7603 92.6125C98.1478 92.3911 98.6461 92.5572 98.8675 92.9447C99.0336 93.3322 98.9782 93.7197 98.6461 93.9964C98.6461 93.9964 98.5907 94.0518 98.5907 94.1072C97.0961 95.6572 95.7121 96.2107 94.5496 96.2107Z" fill="#FFD590"/>
<path d="M100.918 90.9518C100.752 90.9518 100.586 90.8965 100.42 90.7857C99.8661 90.3982 95.2161 86.634 95.5482 83.2018C95.6036 82.759 95.9911 82.4268 96.4339 82.4822C96.8768 82.5375 97.2089 82.925 97.1536 83.3679C96.9321 85.5268 100.143 88.5161 101.361 89.4572C101.748 89.734 101.804 90.2322 101.527 90.6197C101.361 90.8411 101.139 90.9518 100.918 90.9518Z" fill="#FFD590"/>
<path d="M93.9983 114.091C93.943 114.091 93.943 114.091 93.9983 114.091C93.5001 114.091 93.168 113.704 93.168 113.261L93.2787 110.161C93.2787 109.718 93.6662 109.33 94.109 109.33C94.5519 109.33 94.9394 109.718 94.9394 110.161L94.8287 113.261C94.7733 113.759 94.4412 114.091 93.9983 114.091Z" fill="#FFD590"/>
<path d="M81.1523 92.0589C80.8755 92.0589 80.5988 91.9482 80.4327 91.6714C80.2113 91.3393 78.2737 88.2947 78.9934 86.2464C79.2702 85.5268 79.8238 84.9732 80.5988 84.6964C81.0416 84.5304 81.4845 84.8072 81.6505 85.1947C81.8166 85.6375 81.5398 86.0804 81.1523 86.2464C80.7648 86.3572 80.6541 86.5786 80.5434 86.7447C80.2112 87.7411 81.263 89.9 81.8166 90.7304C82.0934 91.1179 81.9827 91.6161 81.5952 91.8929C81.4845 92.0036 81.3184 92.0589 81.1523 92.0589Z" fill="#FFD590"/>
<path d="M69.7505 119.682C69.5844 119.682 69.4183 119.627 69.3076 119.571C68.9201 119.35 68.8094 118.796 69.0308 118.409L71.0237 115.254C71.2451 114.866 71.7987 114.755 72.1862 114.977C72.5737 115.198 72.6844 115.752 72.463 116.139L70.4701 119.295C70.304 119.571 70.0273 119.682 69.7505 119.682Z" fill="#FFD590"/>
<path d="M103.074 129.536C103.019 129.536 103.019 129.536 103.074 129.536C102.576 129.48 102.244 129.093 102.244 128.65C102.299 127.266 102.355 125.605 102.299 124.996C102.299 124.996 102.299 124.996 102.244 124.941C101.967 124.609 101.967 124.055 102.299 123.779C102.576 123.557 102.964 123.502 103.296 123.613C103.739 123.834 104.182 124.055 103.849 128.761C103.849 129.204 103.517 129.536 103.074 129.536Z" fill="#FFD590"/>
<path d="M144.593 109.552C144.205 109.552 143.873 109.33 143.818 108.943C143.319 107.282 142.544 105.677 141.493 104.293C141.216 103.905 141.271 103.407 141.659 103.13C142.046 102.854 142.544 102.909 142.821 103.296C144.039 104.846 144.869 106.618 145.423 108.5C145.534 108.943 145.312 109.386 144.869 109.496C144.759 109.552 144.648 109.552 144.593 109.552ZM138.005 100.971C137.839 100.971 137.728 100.916 137.562 100.861C136.068 99.975 134.407 99.3661 132.691 99.0893C132.248 99.0339 131.916 98.5911 132.027 98.1482C132.082 97.7054 132.525 97.3732 132.968 97.4839C134.905 97.8161 136.732 98.4804 138.448 99.4768C138.835 99.6982 138.946 100.196 138.725 100.639C138.614 100.805 138.337 100.971 138.005 100.971ZM127.321 98.9232H121.785C121.343 98.9232 120.955 98.5357 120.955 98.0929C120.955 97.65 121.343 97.2625 121.785 97.2625H127.321C127.764 97.2625 128.152 97.65 128.152 98.0929C128.152 98.5357 127.819 98.9232 127.321 98.9232Z" fill="#C8C6C4"/>
<path d="M128.484 94.3286H127.322C126.879 94.3286 126.491 93.9411 126.491 93.4983C126.491 93.0554 126.879 92.6679 127.322 92.6679H128.484C128.927 92.6679 129.315 93.0554 129.315 93.4983C129.315 93.9411 128.927 94.3286 128.484 94.3286ZM121.786 94.3286H116.25C115.807 94.3286 115.42 93.9411 115.42 93.4983C115.42 93.0554 115.807 92.6679 116.25 92.6679H121.786C122.229 92.6679 122.616 93.0554 122.616 93.4983C122.616 93.9411 122.284 94.3286 121.786 94.3286Z" fill="#C8C6C4"/>
<g opacity="0.5">
<path opacity="0.5" d="M77.8856 40.4108V46.6661C74.066 45.1161 69.9695 44.0643 65.707 43.6215V40.4108C65.707 37.034 68.4195 34.3215 71.7963 34.3215C75.1731 34.3215 77.8856 37.0893 77.8856 40.4108Z" fill="#F3F2F1"/>
</g>
<g opacity="0.5">
<path opacity="0.5" d="M26.4051 60.2286V60.3393C22.1426 65.7643 19.1533 72.2964 17.8248 79.3821C15.5551 76.2821 14.2266 72.5179 14.2266 68.3661V60.2286C14.2266 56.8518 16.9391 54.1393 20.3158 54.1393C23.6926 54.1393 26.4051 56.9071 26.4051 60.2286Z" fill="#F3F2F1"/>
</g>
<path d="M144.593 109.552C144.205 109.552 143.873 109.33 143.818 108.943C143.319 107.282 142.544 105.677 141.493 104.293C141.216 103.905 141.271 103.407 141.659 103.13C142.046 102.854 142.544 102.909 142.821 103.296C144.039 104.846 144.869 106.618 145.423 108.5C145.534 108.943 145.312 109.386 144.869 109.496C144.759 109.552 144.648 109.552 144.593 109.552ZM138.005 100.971C137.839 100.971 137.728 100.916 137.562 100.861C136.068 99.975 134.407 99.3661 132.691 99.0893C132.248 99.0339 131.916 98.5911 132.027 98.1482C132.082 97.7054 132.525 97.3732 132.968 97.4839C134.905 97.8161 136.732 98.4804 138.448 99.4768C138.835 99.6982 138.946 100.196 138.725 100.639C138.614 100.805 138.337 100.971 138.005 100.971ZM127.321 98.9232H121.785C121.343 98.9232 120.955 98.5357 120.955 98.0929C120.955 97.65 121.343 97.2625 121.785 97.2625H127.321C127.764 97.2625 128.152 97.65 128.152 98.0929C128.152 98.5357 127.819 98.9232 127.321 98.9232Z" fill="#C8C6C4"/>
</svg>
