<svg width="24" height="23" viewBox="0 0 24 23" fill="none" xmlns="http://www.w3.org/2000/svg">
<path d="M5.79822 20.0621C6.404 20.5156 7.34564 20.8427 8.75938 20.634C8.76178 20.9603 8.76447 21.2668 8.76677 21.5288C8.76988 21.8836 8.77228 22.1567 8.77228 22.2867C8.77228 22.3547 8.74792 22.4008 8.72554 22.4213C8.7154 22.4305 8.6606 22.4782 8.48473 22.4511C4.11466 20.9845 0.968099 16.8583 0.968099 11.996C0.968099 5.90554 5.90793 0.967245 12.0008 0.967245C18.0937 0.967245 23.0336 5.90554 23.0336 11.996C23.0336 16.8562 19.8888 20.983 15.5211 22.4517C15.3393 22.482 15.2843 22.4331 15.2753 22.425C15.2538 22.4054 15.2287 22.3591 15.2287 22.2881C15.2287 22.1647 15.2304 21.9484 15.2326 21.6574C15.2338 21.5086 15.2351 21.3402 15.2364 21.1548C15.2402 20.6085 15.2441 19.9179 15.2441 19.153C15.2441 18.4005 15.0757 17.792 14.8149 17.3362C15.8998 17.1549 17.0046 16.8045 17.8909 16.0628C18.9883 15.1444 19.6874 13.6815 19.6874 11.4005C19.6874 10.1417 19.269 9.08977 18.5671 8.24809C18.7311 7.71864 18.9374 6.59264 18.3704 5.16485L18.3014 4.99119L18.1235 4.93407L18.0025 5.31095C18.1235 4.93407 18.1231 4.93394 18.1228 4.93382L18.122 4.93357L18.1203 4.93305L18.1167 4.93194L18.1085 4.92951C18.1065 4.92894 18.1044 4.92835 18.1021 4.92774C18.0977 4.92652 18.0928 4.92524 18.0875 4.9239C18.0715 4.91989 18.0516 4.91546 18.0277 4.91113C17.9799 4.90245 17.9164 4.89421 17.8369 4.89051C17.6775 4.88309 17.4558 4.89397 17.1685 4.95447C16.6206 5.06981 15.8375 5.36475 14.7915 6.0535C13.8939 5.82061 12.9438 5.70504 12.0025 5.70096L11.9991 5.70098C11.0576 5.70504 10.108 5.81931 9.21117 6.05215C8.1633 5.36399 7.37958 5.06912 6.83171 4.95362C6.54441 4.89306 6.32282 4.88203 6.16358 4.8893C6.08409 4.89293 6.02066 4.90111 5.97288 4.90973C5.94901 4.91404 5.92912 4.91845 5.91315 4.92244C5.90517 4.92443 5.89817 4.92632 5.89216 4.92803L5.88388 4.93046L5.8803 4.93156L5.87864 4.93208L5.87785 4.93233C5.87746 4.93245 5.87708 4.93258 5.99776 5.30956L5.87708 4.93258L5.69872 4.98967L5.62975 5.16378C5.06405 6.59178 5.27176 7.71909 5.4351 8.2481C4.73558 9.0891 4.31357 10.1408 4.31357 11.4005C4.31357 13.6761 5.01168 15.139 6.10605 16.06C6.99157 16.8053 8.09569 17.1596 9.1792 17.3436C9.02908 17.6087 8.90987 17.9253 8.83648 18.2905C8.53744 18.4027 8.12612 18.5069 7.70051 18.469C7.2029 18.4247 6.65063 18.185 6.20729 17.4278L6.20645 17.4263L6.1986 17.4126C6.19213 17.4016 6.18319 17.3866 6.17177 17.3682C6.14896 17.3315 6.11613 17.2811 6.07335 17.2214C5.98814 17.1024 5.86143 16.9434 5.6933 16.7811C5.35975 16.459 4.83876 16.1011 4.13962 16.0526L4.12842 16.0519L4.11721 16.0517L4.11227 16.4475C4.11721 16.0517 4.11708 16.0517 4.11695 16.0517L4.11667 16.0517L4.11603 16.0517L4.11443 16.0517L4.11 16.0517L4.09644 16.0517C4.08542 16.0518 4.07045 16.0521 4.05238 16.0527C4.01659 16.054 3.96685 16.0567 3.91051 16.063C3.81355 16.0736 3.63709 16.1 3.48764 16.185C3.40873 16.2299 3.3007 16.3118 3.23926 16.4524C3.17238 16.6055 3.18935 16.761 3.24266 16.8879C3.33268 17.1022 3.54749 17.2897 3.81042 17.469L3.83658 17.4869L3.8613 17.4985C3.86154 17.4986 3.86181 17.4988 3.86212 17.4989C3.86398 17.4999 3.86708 17.5016 3.87134 17.504C3.88358 17.5109 3.90543 17.524 3.93507 17.5443C3.99429 17.5848 4.0849 17.6543 4.19252 17.7622C4.40592 17.9761 4.69163 18.3461 4.93124 18.9508L4.93152 18.9516C4.93399 18.9585 4.93725 18.9674 4.94136 18.978C4.94956 18.9993 4.96117 19.0277 4.97669 19.062C5.00768 19.1306 5.0545 19.2233 5.12125 19.3301C5.25465 19.5436 5.46937 19.8159 5.79822 20.0621Z" fill="#24292E" stroke="black" stroke-width="0.791667"/>
</svg>
