<svg width="201" height="139" viewBox="0 0 201 139" fill="none" xmlns="http://www.w3.org/2000/svg">
<g clip-path="url(#clip0_11726_29910)">
<path d="M159.178 38.1348H53.6656C51.4573 38.1348 49.6671 36.3445 49.6671 34.1362V3.79773C49.6671 1.58946 51.4573 -0.200806 53.6656 -0.200806H159.178C161.386 -0.200806 163.176 1.58946 163.176 3.79773V34.1361C163.176 36.3445 161.386 38.1348 159.178 38.1348Z" fill="#EDEBE9"/>
<path d="M68.8349 27.1759C64.3015 27.1759 60.6265 23.5009 60.6265 18.9675C60.6265 14.4342 64.3016 10.759 68.8349 10.759C73.3684 10.759 77.0434 14.4341 77.0434 18.9674C77.0434 23.5008 73.3683 27.1759 68.8349 27.1759Z" fill="#E1DFDD"/>
<path d="M136.229 21.5911H92.9299V27.1755H136.229V21.5911Z" fill="#E1DFDD"/>
<path d="M128.704 10.7586H92.9299V16.343H128.704V10.7586Z" fill="#E1DFDD"/>
<path d="M109.523 68.8229H4.01074C1.80248 68.8229 0.012207 67.0327 0.012207 64.8244V34.4859C0.012207 32.2776 1.80248 30.4874 4.01074 30.4874H109.523C111.731 30.4874 113.521 32.2776 113.521 34.4859V64.8243C113.521 67.0327 111.731 68.8229 109.523 68.8229Z" fill="#F7C6C8"/>
<path d="M19.1801 57.864C14.6467 57.864 10.9717 54.189 10.9717 49.6556C10.9717 45.1223 14.6467 41.4472 19.1801 41.4472C23.7135 41.4472 27.3885 45.1223 27.3885 49.6556C27.3885 54.189 23.7135 57.864 19.1801 57.864Z" fill="#BDBDE6"/>
<path d="M86.5744 52.2792H43.2751V57.8636H86.5744V52.2792Z" fill="#EE8E94"/>
<path d="M79.0492 41.4468H43.2751V47.0312H79.0492V41.4468Z" fill="#EE8E94"/>
<path d="M187.165 138.795H95.4551C88.3124 138.795 82.522 133.005 82.522 125.862V58.0418C82.522 50.8991 88.3124 45.1088 95.4551 45.1088H187.165C194.307 45.1088 200.098 50.8991 200.098 58.0418V125.862C200.098 133.005 194.307 138.795 187.165 138.795Z" fill="#D1D1E9"/>
<path d="M82.522 58.0418V68.8228H109.523C111.731 68.8228 113.521 67.0325 113.521 64.8241V45.1088H95.4551C88.3124 45.1088 82.522 50.8991 82.522 58.0418Z" fill="#BDBDE6"/>
<path d="M176.066 117.605V74.6718H170.481V117.605H176.066Z" fill="#A6A7DC"/>
<path d="M176.066 114.813H109.226V120.398H176.066V114.813Z" fill="#A6A7DC"/>
<path d="M159.073 63.6268H149.342C148.7 63.6268 148.241 64.3611 148.608 64.9119L153.473 73.3574C153.84 73.9082 154.667 73.9082 155.034 73.3574L159.899 64.9119C160.174 64.3612 159.807 63.6268 159.073 63.6268Z" fill="#EE8F94"/>
<path d="M165.132 80.4268H152.096V109.802H165.132V80.4268Z" fill="#8B8CC7"/>
<path d="M145.67 87.6129H132.635V109.895H145.67V87.6129Z" fill="#8B8CC7"/>
<path d="M126.209 96.7667H113.173V109.802H126.209V96.7667Z" fill="#8B8CC7"/>
<path d="M75.9522 125.682C85.2666 125.682 92.8174 118.132 92.8174 108.817C92.8174 99.5029 85.2666 91.9521 75.9522 91.9521C66.6378 91.9521 59.087 99.5029 59.087 108.817C59.087 118.132 66.6378 125.682 75.9522 125.682Z" fill="#A6A7DC"/>
<path d="M151.542 66.3655L138.249 72.6426L133.75 65.482L116.73 73.5438L118.595 77.4153L132.159 70.9557L136.657 78.2078L153.404 70.2336L151.542 66.3655Z" fill="#EE8F94"/>
<path d="M78.2687 99.0693H73.6355V106.501H66.2046V111.134H73.6355V118.565H78.2687V111.134H85.6996V106.501H78.2687V99.0693Z" fill="white"/>
</g>
<defs>
<clipPath id="clip0_11726_29910">
<rect width="200" height="139" fill="white" transform="translate(0.012207)"/>
</clipPath>
</defs>
</svg>
