<svg width="201" height="200" viewBox="0 0 201 200" fill="none" xmlns="http://www.w3.org/2000/svg">
<g clip-path="url(#clip0_37_2580)">
<path d="M160.772 140.891C128.291 154.589 91.7093 169.271 57.6698 182.805C52.0923 144.09 30.9304 91.1856 0.5 68.4653C28.7158 58.6225 69.9732 44.9247 98.7632 35C133.705 62.3136 147.895 105.129 160.772 140.891Z" fill="#FAF9F8"/>
<path d="M170.697 169.025C136.74 176.653 102.454 184.199 67.8407 191.745C69.8912 151.554 60.0485 101.931 41.5934 69.6136C72.68 62.0675 106.145 53.7012 136.658 46.2371C157.902 86.1002 169.303 128.26 170.697 169.025Z" fill="#F3F2F1"/>
<path d="M165.038 197.897C143.055 192.484 130.506 196.995 115.824 196.749C100.24 196.421 86.2137 194.042 73.6642 190.679C78.3395 176.653 79.0777 155.983 77.3552 134.822C75.3867 111.035 72.1878 93.1541 65.708 74.1248C79.3238 74.9451 96.3025 71.172 108.606 66.1686C126.979 58.7866 147.731 51.6506 166.022 54.0293C171.107 66.9889 174.962 82.7372 175.7 112.019C176.685 144.254 170.779 169.845 165.038 197.897Z" fill="#EDEBE9"/>
<path opacity="0.5" d="M165.038 197.897C143.055 192.484 130.506 196.995 115.824 196.749C100.24 196.421 86.2137 194.042 73.6642 190.679C78.3395 176.653 79.0777 155.983 77.3552 134.822C75.3867 111.035 72.1878 93.1541 65.708 74.1248C79.3238 74.9451 96.3025 71.172 108.606 66.1686C126.979 58.7866 147.731 51.6506 166.022 54.0293C171.107 66.9889 174.962 82.7372 175.7 112.019C176.685 144.254 170.779 169.845 165.038 197.897Z" fill="#E1DFDD"/>
<path d="M172.844 200.343L85.5718 184.184C82.455 183.61 80.4044 180.575 80.9785 177.459L101.812 64.9234C102.386 61.8066 105.421 59.756 108.538 60.3302L195.81 76.4886C198.927 77.0628 200.978 80.0976 200.404 83.2145L179.57 195.75C178.914 198.867 175.961 200.917 172.844 200.343Z" fill="#E2E2F6"/>
<path opacity="0.5" d="M172.844 200.343L85.5718 184.184C82.455 183.61 80.4044 180.575 80.9785 177.459L101.812 64.9234C102.386 61.8066 105.421 59.756 108.538 60.3302L195.81 76.4886C198.927 77.0628 200.978 80.0976 200.404 83.2145L179.57 195.75C178.914 198.867 175.961 200.917 172.844 200.343Z" fill="#BDBDE6"/>
<path d="M169.399 190.664C169.317 190.664 169.235 190.664 169.153 190.664L166.446 190.172C165.79 190.09 165.38 189.434 165.544 188.778C165.626 188.122 166.282 187.711 166.938 187.876L168.497 188.122L168.743 186.563C168.825 185.907 169.481 185.497 170.137 185.661C170.793 185.743 171.204 186.399 171.04 187.055L170.547 189.762C170.465 190.09 170.301 190.336 170.055 190.5C169.809 190.582 169.563 190.664 169.399 190.664Z" fill="white"/>
<path d="M159.474 188.86C159.392 188.86 159.31 188.86 159.228 188.86L153.651 187.793C152.994 187.711 152.584 187.055 152.748 186.399C152.83 185.743 153.487 185.333 154.143 185.497L159.72 186.563C160.376 186.645 160.787 187.301 160.623 187.958C160.541 188.45 160.048 188.86 159.474 188.86ZM146.679 186.481C146.597 186.481 146.515 186.481 146.433 186.481L140.855 185.415C140.199 185.333 139.789 184.677 139.953 184.02C140.035 183.364 140.691 182.954 141.347 183.118L146.925 184.184C147.581 184.267 147.991 184.923 147.827 185.579C147.663 186.071 147.171 186.481 146.679 186.481ZM133.801 184.102C133.719 184.102 133.637 184.102 133.555 184.102L127.977 183.036C127.321 182.954 126.911 182.298 127.075 181.642C127.157 180.986 127.813 180.575 128.47 180.74L134.047 181.806C134.703 181.888 135.113 182.544 134.949 183.2C134.867 183.692 134.375 184.102 133.801 184.102ZM121.006 181.724C120.924 181.724 120.842 181.724 120.76 181.724L115.182 180.658C114.526 180.575 114.116 179.919 114.28 179.263C114.362 178.607 115.018 178.197 115.674 178.361L121.252 179.427C121.908 179.509 122.318 180.165 122.154 180.822C121.99 181.314 121.498 181.724 121.006 181.724ZM108.128 179.345C108.046 179.345 107.964 179.345 107.882 179.345L102.304 178.279C101.648 178.197 101.238 177.541 101.402 176.884C101.484 176.228 102.14 175.818 102.797 175.982L108.374 177.049C109.03 177.131 109.44 177.787 109.276 178.443C109.194 178.935 108.702 179.345 108.128 179.345Z" fill="white"/>
<path d="M95.3326 176.967C95.2505 176.967 95.1685 176.967 95.0865 176.967L92.3797 176.474C92.0516 176.392 91.8056 176.228 91.6415 175.982C91.4775 175.736 91.3955 175.408 91.4775 175.08L91.9696 172.373C92.0516 171.717 92.7078 171.307 93.364 171.471C94.0202 171.553 94.4303 172.209 94.2663 172.865L94.0202 174.424L95.5786 174.67C96.2348 174.752 96.6449 175.408 96.4809 176.064C96.3989 176.556 95.9067 176.967 95.3326 176.967Z" fill="white"/>
<path d="M94.3482 167.288C94.2662 167.288 94.1841 167.288 94.1021 167.288C93.4459 167.206 93.0358 166.55 93.1999 165.893L94.1021 160.808C94.1841 160.152 94.8403 159.742 95.4965 159.906C96.1527 159.988 96.5628 160.644 96.3988 161.3L95.4965 166.386C95.4145 166.878 94.9224 167.288 94.3482 167.288ZM96.4808 155.805C96.3988 155.805 96.3167 155.805 96.2347 155.805C95.5785 155.723 95.1684 155.066 95.3325 154.41L96.2347 149.407C96.3167 148.751 96.9729 148.341 97.6291 148.505C98.2853 148.587 98.6954 149.243 98.5313 149.899L97.6291 154.902C97.5471 155.395 97.0549 155.805 96.4808 155.805ZM98.6134 144.239C98.5314 144.239 98.4493 144.239 98.3673 144.239C97.7111 144.157 97.301 143.501 97.4651 142.845L98.3673 137.76C98.4493 137.103 99.1055 136.693 99.7617 136.857C100.418 136.939 100.828 137.596 100.664 138.252L99.7617 143.337C99.6797 143.829 99.1875 144.239 98.6134 144.239ZM100.746 132.674C100.664 132.674 100.582 132.674 100.5 132.674C99.8437 132.592 99.4336 131.936 99.5976 131.28L100.5 126.194C100.582 125.538 101.238 125.128 101.894 125.292C102.55 125.374 102.961 126.03 102.797 126.687L101.894 131.772C101.812 132.346 101.32 132.674 100.746 132.674ZM102.879 121.191C102.797 121.191 102.715 121.191 102.632 121.191C101.976 121.109 101.566 120.453 101.73 119.797L102.632 114.793C102.715 114.137 103.371 113.727 104.027 113.891C104.683 113.973 105.093 114.629 104.929 115.285L104.027 120.371C103.945 120.781 103.453 121.191 102.879 121.191ZM105.011 109.626C104.929 109.626 104.847 109.626 104.765 109.626C104.109 109.544 103.699 108.888 103.863 108.231L104.765 103.228C104.847 102.572 105.503 102.162 106.159 102.326C106.816 102.408 107.226 103.064 107.062 103.72L106.159 108.724C106.077 109.298 105.585 109.626 105.011 109.626ZM107.144 98.1427C107.062 98.1427 106.98 98.1427 106.898 98.1427C106.241 98.0606 105.831 97.4045 105.995 96.7483L106.898 91.6629C106.98 91.0067 107.636 90.5966 108.292 90.7606C108.948 90.8426 109.358 91.4988 109.194 92.155L108.292 97.2404C108.21 97.7325 107.718 98.1427 107.144 98.1427ZM109.276 86.5775C109.194 86.5775 109.112 86.5775 109.03 86.5775C108.374 86.4954 107.964 85.8393 108.128 85.1831L109.03 80.1797C109.112 79.5235 109.768 79.1134 110.425 79.2774C111.081 79.3595 111.491 80.0157 111.327 80.6718L110.425 85.6752C110.343 86.1674 109.85 86.5775 109.276 86.5775Z" fill="white"/>
<path d="M111.409 75.0943C111.327 75.0943 111.245 75.0943 111.163 75.0943C110.507 75.0123 110.097 74.3561 110.261 73.6999L110.753 70.9932C110.835 70.337 111.491 69.9269 112.147 70.0909L114.854 70.5831C115.51 70.6651 115.92 71.3213 115.756 71.9774C115.674 72.6336 115.018 73.0437 114.362 72.8797L112.803 72.6336L112.557 74.1921C112.475 74.6842 111.983 75.0943 111.409 75.0943Z" fill="white"/>
<path d="M178.75 84.773C178.668 84.773 178.586 84.773 178.504 84.773L172.926 83.7067C172.27 83.6247 171.86 82.9685 172.024 82.3123C172.106 81.6561 172.762 81.246 173.418 81.4101L178.996 82.4764C179.652 82.5584 180.062 83.2146 179.898 83.8707C179.816 84.3629 179.324 84.773 178.75 84.773ZM165.872 82.3943C165.79 82.3943 165.708 82.3943 165.626 82.3943L160.048 81.328C159.392 81.246 158.982 80.5898 159.146 79.9337C159.228 79.2775 159.884 78.8674 160.541 79.0314L166.118 80.0977C166.774 80.1797 167.184 80.8359 167.02 81.4921C166.938 81.9842 166.446 82.3943 165.872 82.3943ZM153.077 80.0157C152.994 80.0157 152.912 80.0157 152.83 80.0157L147.253 78.9494C146.597 78.8674 146.187 78.2112 146.351 77.555C146.433 76.8988 147.089 76.4887 147.745 76.6527L153.323 77.719C153.979 77.8011 154.389 78.4572 154.225 79.1134C154.143 79.6056 153.651 80.0157 153.077 80.0157ZM140.281 77.637C140.199 77.637 140.117 77.637 140.035 77.637L134.457 76.5707C133.801 76.4887 133.391 75.8325 133.555 75.1763C133.637 74.5202 134.293 74.11 134.949 74.2741L140.527 75.3404C141.183 75.4224 141.593 76.0786 141.429 76.7348C141.265 77.2269 140.773 77.637 140.281 77.637ZM127.403 75.2584C127.321 75.2584 127.239 75.2584 127.157 75.2584L121.58 74.1921C120.924 74.11 120.513 73.4539 120.678 72.7977C120.76 72.1415 121.416 71.7314 122.072 71.8954L127.649 72.9617C128.306 73.0437 128.716 73.6999 128.552 74.3561C128.47 74.8482 127.978 75.2584 127.403 75.2584Z" fill="white"/>
<path d="M188.1 89.2843C188.018 89.2843 187.936 89.2843 187.854 89.2843C187.198 89.2022 186.788 88.546 186.952 87.8899L187.198 86.3314L185.722 86.0854C185.065 86.0034 184.655 85.3472 184.819 84.691C184.901 84.0348 185.558 83.6247 186.214 83.7887L188.921 84.2809C189.249 84.3629 189.495 84.5269 189.659 84.773C189.823 85.0191 189.905 85.3472 189.823 85.6753L189.331 88.382C189.167 88.8741 188.674 89.2843 188.1 89.2843Z" fill="white"/>
<path d="M171.039 181.478C170.957 181.478 170.875 181.478 170.793 181.478C170.137 181.396 169.727 180.74 169.891 180.083L170.793 174.998C170.875 174.342 171.532 173.932 172.188 174.096C172.844 174.178 173.254 174.834 173.09 175.49L172.188 180.576C172.106 181.068 171.614 181.478 171.039 181.478ZM173.172 169.995C173.09 169.995 173.008 169.995 172.926 169.995C172.27 169.913 171.86 169.256 172.024 168.6L172.926 163.597C173.008 162.941 173.664 162.531 174.32 162.695C174.977 162.777 175.387 163.433 175.223 164.089L174.32 169.092C174.238 169.584 173.746 169.995 173.172 169.995ZM175.305 158.429C175.223 158.429 175.141 158.429 175.059 158.429C174.402 158.347 173.992 157.691 174.156 157.035L175.059 151.95C175.141 151.293 175.797 150.883 176.453 151.047C177.109 151.129 177.519 151.786 177.355 152.442L176.453 157.527C176.371 158.019 175.879 158.429 175.305 158.429ZM177.437 146.946C177.355 146.946 177.273 146.946 177.191 146.946C176.535 146.864 176.125 146.208 176.289 145.552L177.191 140.466C177.273 139.81 177.929 139.4 178.586 139.564C179.242 139.646 179.652 140.302 179.488 140.959L178.586 146.044C178.504 146.536 178.011 146.946 177.437 146.946ZM179.57 135.381C179.488 135.381 179.406 135.381 179.324 135.381C178.668 135.299 178.257 134.643 178.422 133.987L179.324 128.983C179.406 128.327 180.062 127.917 180.718 128.081C181.374 128.163 181.784 128.819 181.62 129.475L180.718 134.479C180.636 134.971 180.144 135.381 179.57 135.381ZM181.702 123.816C181.62 123.816 181.538 123.816 181.456 123.816C180.8 123.734 180.39 123.078 180.554 122.421L181.456 117.418C181.538 116.762 182.195 116.352 182.851 116.516C183.507 116.598 183.917 117.254 183.753 117.91L182.851 122.996C182.769 123.488 182.277 123.816 181.702 123.816ZM183.835 112.333C183.753 112.333 183.671 112.333 183.589 112.333C182.933 112.251 182.523 111.594 182.687 110.938L183.589 105.853C183.671 105.197 184.327 104.787 184.983 104.951C185.64 105.033 186.05 105.689 185.886 106.345L184.983 111.43C184.901 111.922 184.409 112.333 183.835 112.333ZM185.968 100.767C185.886 100.767 185.804 100.767 185.722 100.767C185.065 100.685 184.655 100.029 184.819 99.373L185.722 94.3696C185.804 93.7135 186.46 93.3033 187.116 93.4674C187.772 93.5494 188.182 94.2056 188.018 94.8618L187.116 99.8652C187.034 100.357 186.542 100.767 185.968 100.767Z" fill="white"/>
<path d="M154.635 56.4751C149.632 55.5729 144.874 58.8538 143.972 63.8572C143.07 68.8606 146.351 73.6179 151.354 74.5201C156.358 75.4224 161.115 72.1415 162.017 67.1381C162.919 62.1347 159.638 57.3774 154.635 56.4751ZM156.686 66.1538C156.275 68.2044 154.307 69.5988 152.256 69.1886C150.206 68.7785 148.811 66.81 149.222 64.7594C149.632 62.7088 151.6 61.3145 153.651 61.7246C155.701 62.1347 157.096 64.1032 156.686 66.1538Z" fill="#8B8CC7"/>
<path d="M171.778 68.9426L160.787 66.892C159.966 71.2392 155.865 74.028 151.518 73.2898C147.171 72.4695 144.382 68.3684 145.12 64.0212L133.473 61.8886C132.161 61.6425 131.012 62.4628 130.766 63.7751L128.88 73.8639C128.634 75.1763 129.454 76.3246 130.766 76.5707L168.989 83.6246C170.301 83.8707 171.45 83.0505 171.696 81.7381L173.582 71.6493C173.91 70.419 173.09 69.1886 171.778 68.9426Z" fill="#8B8CC7"/>
</g>
<defs>
<clipPath id="clip0_37_2580">
<rect width="200" height="200" fill="white" transform="translate(0.5)"/>
</clipPath>
</defs>
</svg>
